<svg width="398" height="148" viewBox="0 0 398 148" fill="none" xmlns="http://www.w3.org/2000/svg">
<mask id="path-1-inside-1_3714_8366" fill="white">
<path fill-rule="evenodd" clip-rule="evenodd" d="M0 5C0 2.23858 2.23858 0 5 0H393C395.761 0 398 2.23858 398 5V67C393.029 67 389 71.0294 389 76V79C389 83.9706 393.029 88 398 88V143C398 145.761 395.761 148 393 148H5C2.23858 148 0 145.761 0 143V88C4.97056 88 9 83.9706 9 79V76C9 71.0294 4.97056 67 0 67V5Z"/>
</mask>
<path fill-rule="evenodd" clip-rule="evenodd" d="M0 5C0 2.23858 2.23858 0 5 0H393C395.761 0 398 2.23858 398 5V67C393.029 67 389 71.0294 389 76V79C389 83.9706 393.029 88 398 88V143C398 145.761 395.761 148 393 148H5C2.23858 148 0 145.761 0 143V88C4.97056 88 9 83.9706 9 79V76C9 71.0294 4.97056 67 0 67V5Z" fill="#FEF1F2"/>
<path d="M398 67V67.9H398.9V67H398ZM398 88H398.9V87.1H398V88ZM0 88V87.1H-0.9V88H0ZM0 67H-0.9V67.9H0V67ZM5 -0.9C1.74152 -0.9 -0.9 1.74152 -0.9 5H0.9C0.9 2.73563 2.73563 0.9 5 0.9V-0.9ZM393 -0.9H5V0.9H393V-0.9ZM398.9 5C398.9 1.74152 396.258 -0.9 393 -0.9V0.9C395.264 0.9 397.1 2.73563 397.1 5H398.9ZM398.9 67V5H397.1V67H398.9ZM389.9 76C389.9 71.5265 393.527 67.9 398 67.9V66.1C392.532 66.1 388.1 70.5324 388.1 76H389.9ZM389.9 79V76H388.1V79H389.9ZM398 87.1C393.527 87.1 389.9 83.4735 389.9 79H388.1C388.1 84.4676 392.532 88.9 398 88.9V87.1ZM398.9 143V88H397.1V143H398.9ZM393 148.9C396.258 148.9 398.9 146.258 398.9 143H397.1C397.1 145.264 395.264 147.1 393 147.1V148.9ZM5 148.9H393V147.1H5V148.9ZM-0.9 143C-0.9 146.258 1.74152 148.9 5 148.9V147.1C2.73563 147.1 0.9 145.264 0.9 143H-0.9ZM-0.9 88V143H0.9V88H-0.9ZM8.1 79C8.1 83.4735 4.47351 87.1 0 87.1V88.9C5.46762 88.9 9.9 84.4676 9.9 79H8.1ZM8.1 76V79H9.9V76H8.1ZM0 67.9C4.47351 67.9 8.1 71.5265 8.1 76H9.9C9.9 70.5324 5.46762 66.1 0 66.1V67.9ZM-0.9 5V67H0.9V5H-0.9Z" fill="#980019" mask="url(#path-1-inside-1_3714_8366)"/>
</svg>
