<svg width="398" height="148" viewBox="0 0 398 148" fill="none" xmlns="http://www.w3.org/2000/svg">
<mask id="path-1-inside-1_3063_7822" fill="white">
<path fill-rule="evenodd" clip-rule="evenodd" d="M0 5C0 2.23858 2.23858 0 5 0H393C395.761 0 398 2.23858 398 5V67C393.029 67 389 71.0294 389 76V79C389 83.9706 393.029 88 398 88V143C398 145.761 395.761 148 393 148H5C2.23858 148 0 145.761 0 143V88C4.97056 88 9 83.9706 9 79V76C9 71.0294 4.97056 67 0 67V5Z"/>
</mask>
<path fill-rule="evenodd" clip-rule="evenodd" d="M0 5C0 2.23858 2.23858 0 5 0H393C395.761 0 398 2.23858 398 5V67C393.029 67 389 71.0294 389 76V79C389 83.9706 393.029 88 398 88V143C398 145.761 395.761 148 393 148H5C2.23858 148 0 145.761 0 143V88C4.97056 88 9 83.9706 9 79V76C9 71.0294 4.97056 67 0 67V5Z" fill="#FEF1F2"/>
<path d="M398 67V67.9H398.9V67H398ZM398 88H398.9V87.1H398V88ZM0 88V87.1H-0.9V88H0ZM0 67H-0.9V67.9H0V67ZM5 -0.9C1.74152 -0.9 -0.9 1.74152 -0.9 5H0.9C0.9 2.73563 2.73563 0.9 5 0.9V-0.9ZM393 -0.9H5V0.9H393V-0.9ZM398.9 5C398.9 1.74152 396.258 -0.9 393 -0.9V0.9C395.264 0.9 397.1 2.73563 397.1 5H398.9ZM398.9 67V5H397.1V67H398.9ZM389.9 76C389.9 71.5265 393.527 67.9 398 67.9V66.1C392.532 66.1 388.1 70.5324 388.1 76H389.9ZM389.9 79V76H388.1V79H389.9ZM398 87.1C393.527 87.1 389.9 83.4735 389.9 79H388.1C388.1 84.4676 392.532 88.9 398 88.9V87.1ZM398.9 143V88H397.1V143H398.9ZM393 148.9C396.258 148.9 398.9 146.258 398.9 143H397.1C397.1 145.264 395.264 147.1 393 147.1V148.9ZM5 148.9H393V147.1H5V148.9ZM-0.9 143C-0.9 146.258 1.74152 148.9 5 148.9V147.1C2.73563 147.1 0.9 145.264 0.9 143H-0.9ZM-0.9 88V143H0.9V88H-0.9ZM8.1 79C8.1 83.4735 4.47351 87.1 0 87.1V88.9C5.46762 88.9 9.9 84.4676 9.9 79H8.1ZM8.1 76V79H9.9V76H8.1ZM0 67.9C4.47351 67.9 8.1 71.5265 8.1 76H9.9C9.9 70.5324 5.46762 66.1 0 66.1V67.9ZM-0.9 5V67H0.9V5H-0.9Z" fill="#980019" mask="url(#path-1-inside-1_3063_7822)"/>
<path d="M28.5462 29.168C28.5462 29.6627 28.4295 30.1293 28.1962 30.568C27.9629 31.0067 27.5895 31.366 27.0762 31.646C26.5629 31.9167 25.9049 32.052 25.1022 32.052H23.3382V36H21.7422V26.27H25.1022C25.8489 26.27 26.4789 26.4007 26.9922 26.662C27.5149 26.914 27.9022 27.2593 28.1542 27.698C28.4155 28.1367 28.5462 28.6267 28.5462 29.168ZM25.1022 30.75C25.7089 30.75 26.1615 30.6147 26.4602 30.344C26.7589 30.064 26.9082 29.672 26.9082 29.168C26.9082 28.104 26.3062 27.572 25.1022 27.572H23.3382V30.75H25.1022ZM35.2224 36L32.9824 32.108H31.7644V36H30.1684V26.27H33.5284C34.275 26.27 34.905 26.4007 35.4184 26.662C35.941 26.9233 36.3284 27.2733 36.5804 27.712C36.8417 28.1507 36.9724 28.6407 36.9724 29.182C36.9724 29.8167 36.7857 30.3953 36.4124 30.918C36.0484 31.4313 35.4837 31.7813 34.7184 31.968L37.1264 36H35.2224ZM31.7644 30.834H33.5284C34.1257 30.834 34.5737 30.6847 34.8724 30.386C35.1804 30.0873 35.3344 29.686 35.3344 29.182C35.3344 28.678 35.185 28.286 34.8864 28.006C34.5877 27.7167 34.135 27.572 33.5284 27.572H31.7644V30.834ZM40.7101 27.558V30.414H44.0701V31.716H40.7101V34.698H44.4901V36H39.1141V26.256H44.4901V27.558H40.7101ZM49.7619 36.098C49.1085 36.098 48.5205 35.986 47.9979 35.762C47.4752 35.5287 47.0645 35.202 46.7659 34.782C46.4672 34.362 46.3179 33.872 46.3179 33.312H48.0259C48.0632 33.732 48.2265 34.0773 48.5159 34.348C48.8145 34.6187 49.2299 34.754 49.7619 34.754C50.3125 34.754 50.7419 34.6233 51.0499 34.362C51.3579 34.0913 51.5119 33.746 51.5119 33.326C51.5119 32.9993 51.4139 32.7333 51.2179 32.528C51.0312 32.3227 50.7932 32.164 50.5039 32.052C50.2239 31.94 49.8319 31.8187 49.3279 31.688C48.6932 31.52 48.1752 31.352 47.7739 31.184C47.3819 31.0067 47.0459 30.736 46.7659 30.372C46.4859 30.008 46.3459 29.5227 46.3459 28.916C46.3459 28.356 46.4859 27.866 46.7659 27.446C47.0459 27.026 47.4379 26.704 47.9419 26.48C48.4459 26.256 49.0292 26.144 49.6919 26.144C50.6345 26.144 51.4045 26.382 52.0019 26.858C52.6085 27.3247 52.9445 27.9687 53.0099 28.79H51.2459C51.2179 28.4353 51.0499 28.132 50.7419 27.88C50.4339 27.628 50.0279 27.502 49.5239 27.502C49.0665 27.502 48.6932 27.6187 48.4039 27.852C48.1145 28.0853 47.9699 28.4213 47.9699 28.86C47.9699 29.1587 48.0585 29.406 48.2359 29.602C48.4225 29.7887 48.6559 29.938 48.9359 30.05C49.2159 30.162 49.5985 30.2833 50.0839 30.414C50.7279 30.5913 51.2505 30.7687 51.6519 30.946C52.0625 31.1233 52.4079 31.3987 52.6879 31.772C52.9772 32.136 53.1219 32.626 53.1219 33.242C53.1219 33.7367 52.9865 34.2033 52.7159 34.642C52.4545 35.0807 52.0672 35.4353 51.5539 35.706C51.0499 35.9673 50.4525 36.098 49.7619 36.098ZM60.9711 34.012H56.8971L56.1971 36H54.5311L58.0171 26.256H59.8651L63.3511 36H61.6711L60.9711 34.012ZM60.5231 32.71L58.9411 28.188L57.3451 32.71H60.5231ZM66.5628 34.712H69.8528V36H64.9668V26.27H66.5628V34.712ZM72.8835 27.558V30.414H76.2435V31.716H72.8835V34.698H76.6635V36H71.2875V26.256H76.6635V27.558H72.8835ZM82.046 27.25V25.794H84.958V36H83.348V27.25H82.046ZM97.1193 30.26V31.604H91.3653V30.26H97.1193ZM111.609 26.27L107.955 36H106.107L102.439 26.27H104.147L107.031 34.362L109.929 26.27H111.609ZM121.43 26.27L117.776 36H115.928L112.26 26.27H113.968L116.852 34.362L119.75 26.27H121.43ZM124.461 26.27V36H122.865V26.27H124.461ZM133.46 29.168C133.46 29.6627 133.344 30.1293 133.11 30.568C132.877 31.0067 132.504 31.366 131.99 31.646C131.477 31.9167 130.819 32.052 130.016 32.052H128.252V36H126.656V26.27H130.016C130.763 26.27 131.393 26.4007 131.906 26.662C132.429 26.914 132.816 27.2593 133.068 27.698C133.33 28.1367 133.46 28.6267 133.46 29.168ZM130.016 30.75C130.623 30.75 131.076 30.6147 131.374 30.344C131.673 30.064 131.822 29.672 131.822 29.168C131.822 28.104 131.22 27.572 130.016 27.572H128.252V30.75H130.016ZM143.873 36L141.633 32.108H140.415V36H138.819V26.27H142.179C142.926 26.27 143.556 26.4007 144.069 26.662C144.592 26.9233 144.979 27.2733 145.231 27.712C145.492 28.1507 145.623 28.6407 145.623 29.182C145.623 29.8167 145.436 30.3953 145.063 30.918C144.699 31.4313 144.134 31.7813 143.369 31.968L145.777 36H143.873ZM140.415 30.834H142.179C142.776 30.834 143.224 30.6847 143.523 30.386C143.831 30.0873 143.985 29.686 143.985 29.182C143.985 28.678 143.836 28.286 143.537 28.006C143.238 27.7167 142.786 27.572 142.179 27.572H140.415V30.834ZM149.361 26.27V36H147.765V26.27H149.361ZM158.598 29.07C158.346 28.5847 157.996 28.2207 157.548 27.978C157.1 27.726 156.582 27.6 155.994 27.6C155.35 27.6 154.776 27.7447 154.272 28.034C153.768 28.3233 153.372 28.734 153.082 29.266C152.802 29.798 152.662 30.414 152.662 31.114C152.662 31.814 152.802 32.4347 153.082 32.976C153.372 33.508 153.768 33.9187 154.272 34.208C154.776 34.4973 155.35 34.642 155.994 34.642C156.862 34.642 157.567 34.3993 158.108 33.914C158.65 33.4287 158.981 32.7707 159.102 31.94H155.448V30.666H160.81V31.912C160.708 32.668 160.437 33.3633 159.998 33.998C159.569 34.6327 159.004 35.1413 158.304 35.524C157.614 35.8973 156.844 36.084 155.994 36.084C155.08 36.084 154.244 35.874 153.488 35.454C152.732 35.0247 152.13 34.432 151.682 33.676C151.244 32.92 151.024 32.066 151.024 31.114C151.024 30.162 151.244 29.308 151.682 28.552C152.13 27.796 152.732 27.208 153.488 26.788C154.254 26.3587 155.089 26.144 155.994 26.144C157.03 26.144 157.95 26.4007 158.752 26.914C159.564 27.418 160.152 28.1367 160.516 29.07H158.598ZM170.254 26.27V36H168.658V31.744H164.08V36H162.484V26.27H164.08V30.442H168.658V26.27H170.254ZM178.741 26.27V27.572H176.151V36H174.555V27.572H171.951V26.27H178.741Z" fill="#4A4A4A"/>
<path d="M26.0561 53.02C26.0561 53.62 25.8595 54.1033 25.4661 54.47C25.0728 54.8367 24.4828 55.02 23.6961 55.02H22.2861V58H21.5861V51.01H23.6961C24.4761 51.01 25.0628 51.1933 25.4561 51.56C25.8561 51.9267 26.0561 52.4133 26.0561 53.02ZM23.6961 54.42C24.7895 54.42 25.3361 53.9533 25.3361 53.02C25.3361 52.5533 25.2061 52.2 24.9461 51.96C24.6861 51.72 24.2695 51.6 23.6961 51.6H22.2861V54.42H23.6961ZM32.6707 54.99C32.6707 55.23 32.664 55.4133 32.6507 55.54H28.1207C28.1407 55.9533 28.2407 56.3067 28.4207 56.6C28.6007 56.8933 28.8373 57.1167 29.1307 57.27C29.424 57.4167 29.744 57.49 30.0907 57.49C30.544 57.49 30.924 57.38 31.2307 57.16C31.544 56.94 31.7507 56.6433 31.8507 56.27H32.5907C32.4573 56.8033 32.1707 57.24 31.7307 57.58C31.2973 57.9133 30.7507 58.08 30.0907 58.08C29.5773 58.08 29.1173 57.9667 28.7107 57.74C28.304 57.5067 27.984 57.18 27.7507 56.76C27.524 56.3333 27.4107 55.8367 27.4107 55.27C27.4107 54.7033 27.524 54.2067 27.7507 53.78C27.9773 53.3533 28.294 53.0267 28.7007 52.8C29.1073 52.5733 29.5707 52.46 30.0907 52.46C30.6107 52.46 31.064 52.5733 31.4507 52.8C31.844 53.0267 32.144 53.3333 32.3507 53.72C32.564 54.1 32.6707 54.5233 32.6707 54.99ZM31.9607 54.97C31.9673 54.5633 31.884 54.2167 31.7107 53.93C31.544 53.6433 31.314 53.4267 31.0207 53.28C30.7273 53.1333 30.4073 53.06 30.0607 53.06C29.5407 53.06 29.0973 53.2267 28.7307 53.56C28.364 53.8933 28.1607 54.3633 28.1207 54.97H31.9607ZM40.9514 52.44C41.5914 52.44 42.1114 52.6433 42.5114 53.05C42.918 53.45 43.1214 54.0333 43.1214 54.8V58H42.4314V54.88C42.4314 54.2867 42.288 53.8333 42.0014 53.52C41.7147 53.2067 41.3247 53.05 40.8314 53.05C40.318 53.05 39.908 53.22 39.6014 53.56C39.2947 53.9 39.1414 54.3933 39.1414 55.04V58H38.4514V54.88C38.4514 54.2867 38.308 53.8333 38.0214 53.52C37.7347 53.2067 37.3414 53.05 36.8414 53.05C36.328 53.05 35.918 53.22 35.6114 53.56C35.3047 53.9 35.1514 54.3933 35.1514 55.04V58H34.4514V52.54H35.1514V53.48C35.3247 53.14 35.5714 52.8833 35.8914 52.71C36.2114 52.53 36.568 52.44 36.9614 52.44C37.4347 52.44 37.848 52.5533 38.2014 52.78C38.5614 53.0067 38.8214 53.34 38.9814 53.78C39.128 53.3467 39.378 53.0167 39.7314 52.79C40.0914 52.5567 40.498 52.44 40.9514 52.44ZM50.116 54.99C50.116 55.23 50.1093 55.4133 50.096 55.54H45.566C45.586 55.9533 45.686 56.3067 45.866 56.6C46.046 56.8933 46.2826 57.1167 46.576 57.27C46.8693 57.4167 47.1893 57.49 47.536 57.49C47.9893 57.49 48.3693 57.38 48.676 57.16C48.9893 56.94 49.196 56.6433 49.296 56.27H50.036C49.9026 56.8033 49.616 57.24 49.176 57.58C48.7426 57.9133 48.196 58.08 47.536 58.08C47.0226 58.08 46.5626 57.9667 46.156 57.74C45.7493 57.5067 45.4293 57.18 45.196 56.76C44.9693 56.3333 44.856 55.8367 44.856 55.27C44.856 54.7033 44.9693 54.2067 45.196 53.78C45.4226 53.3533 45.7393 53.0267 46.146 52.8C46.5526 52.5733 47.016 52.46 47.536 52.46C48.056 52.46 48.5093 52.5733 48.896 52.8C49.2893 53.0267 49.5893 53.3333 49.796 53.72C50.0093 54.1 50.116 54.5233 50.116 54.99ZM49.406 54.97C49.4126 54.5633 49.3293 54.2167 49.156 53.93C48.9893 53.6433 48.7593 53.4267 48.466 53.28C48.1726 53.1333 47.8526 53.06 47.506 53.06C46.986 53.06 46.5426 53.2267 46.176 53.56C45.8093 53.8933 45.606 54.3633 45.566 54.97H49.406ZM54.1867 52.46C54.7 52.46 55.1467 52.58 55.5267 52.82C55.9067 53.06 56.18 53.3633 56.3467 53.73V52.54H57.0467V58.14C57.0467 58.64 56.9367 59.0833 56.7167 59.47C56.5033 59.8567 56.2033 60.1533 55.8167 60.36C55.43 60.5733 54.99 60.68 54.4967 60.68C53.7967 60.68 53.2133 60.5133 52.7467 60.18C52.2867 59.8467 52 59.3933 51.8867 58.82H52.5767C52.6967 59.2 52.9233 59.5033 53.2567 59.73C53.5967 59.9567 54.01 60.07 54.4967 60.07C54.85 60.07 55.1667 59.9933 55.4467 59.84C55.7267 59.6933 55.9467 59.4733 56.1067 59.18C56.2667 58.8867 56.3467 58.54 56.3467 58.14V56.79C56.1733 57.1633 55.8967 57.4733 55.5167 57.72C55.1433 57.96 54.7 58.08 54.1867 58.08C53.6867 58.08 53.2367 57.9633 52.8367 57.73C52.4433 57.4967 52.1333 57.1667 51.9067 56.74C51.6867 56.3133 51.5767 55.82 51.5767 55.26C51.5767 54.7 51.6867 54.21 51.9067 53.79C52.1333 53.3633 52.4433 53.0367 52.8367 52.81C53.2367 52.5767 53.6867 52.46 54.1867 52.46ZM56.3467 55.27C56.3467 54.83 56.2567 54.4433 56.0767 54.11C55.8967 53.7767 55.65 53.52 55.3367 53.34C55.03 53.16 54.69 53.07 54.3167 53.07C53.93 53.07 53.5833 53.1567 53.2767 53.33C52.97 53.5033 52.7267 53.7567 52.5467 54.09C52.3733 54.4167 52.2867 54.8067 52.2867 55.26C52.2867 55.7067 52.3733 56.1 52.5467 56.44C52.7267 56.7733 52.97 57.03 53.2767 57.21C53.5833 57.3833 53.93 57.47 54.3167 57.47C54.69 57.47 55.03 57.38 55.3367 57.2C55.65 57.02 55.8967 56.7633 56.0767 56.43C56.2567 56.0967 56.3467 55.71 56.3467 55.27ZM58.8247 55.26C58.8247 54.7 58.9347 54.21 59.1547 53.79C59.3814 53.3633 59.6914 53.0367 60.0847 52.81C60.4847 52.5767 60.9347 52.46 61.4347 52.46C61.9547 52.46 62.4014 52.58 62.7747 52.82C63.1547 53.06 63.4281 53.3667 63.5947 53.74V52.54H64.2947V58H63.5947V56.79C63.4214 57.1633 63.1447 57.4733 62.7647 57.72C62.3914 57.96 61.9447 58.08 61.4247 58.08C60.9314 58.08 60.4847 57.9633 60.0847 57.73C59.6914 57.4967 59.3814 57.1667 59.1547 56.74C58.9347 56.3133 58.8247 55.82 58.8247 55.26ZM63.5947 55.27C63.5947 54.83 63.5047 54.4433 63.3247 54.11C63.1447 53.7767 62.8981 53.52 62.5847 53.34C62.2781 53.16 61.9381 53.07 61.5647 53.07C61.1781 53.07 60.8314 53.1567 60.5247 53.33C60.2181 53.5033 59.9747 53.7567 59.7947 54.09C59.6214 54.4167 59.5347 54.8067 59.5347 55.26C59.5347 55.7067 59.6214 56.1 59.7947 56.44C59.9747 56.7733 60.2181 57.03 60.5247 57.21C60.8314 57.3833 61.1781 57.47 61.5647 57.47C61.9381 57.47 62.2781 57.38 62.5847 57.2C62.8981 57.02 63.1447 56.7633 63.3247 56.43C63.5047 56.0967 63.5947 55.71 63.5947 55.27ZM68.9528 52.44C69.6061 52.44 70.1394 52.6433 70.5528 53.05C70.9661 53.45 71.1728 54.0333 71.1728 54.8V58H70.4828V54.88C70.4828 54.2867 70.3328 53.8333 70.0328 53.52C69.7394 53.2067 69.3361 53.05 68.8228 53.05C68.2961 53.05 67.8761 53.2167 67.5628 53.55C67.2494 53.8833 67.0928 54.3733 67.0928 55.02V58H66.3928V52.54H67.0928V53.47C67.2661 53.1367 67.5161 52.8833 67.8428 52.71C68.1694 52.53 68.5394 52.44 68.9528 52.44ZM75.5109 52.46C76.0242 52.46 76.4709 52.58 76.8509 52.82C77.2309 53.06 77.5042 53.3633 77.6709 53.73V52.54H78.3709V58.14C78.3709 58.64 78.2609 59.0833 78.0409 59.47C77.8276 59.8567 77.5276 60.1533 77.1409 60.36C76.7542 60.5733 76.3142 60.68 75.8209 60.68C75.1209 60.68 74.5376 60.5133 74.0709 60.18C73.6109 59.8467 73.3242 59.3933 73.2109 58.82H73.9009C74.0209 59.2 74.2476 59.5033 74.5809 59.73C74.9209 59.9567 75.3342 60.07 75.8209 60.07C76.1742 60.07 76.4909 59.9933 76.7709 59.84C77.0509 59.6933 77.2709 59.4733 77.4309 59.18C77.5909 58.8867 77.6709 58.54 77.6709 58.14V56.79C77.4976 57.1633 77.2209 57.4733 76.8409 57.72C76.4676 57.96 76.0242 58.08 75.5109 58.08C75.0109 58.08 74.5609 57.9633 74.1609 57.73C73.7676 57.4967 73.4576 57.1667 73.2309 56.74C73.0109 56.3133 72.9009 55.82 72.9009 55.26C72.9009 54.7 73.0109 54.21 73.2309 53.79C73.4576 53.3633 73.7676 53.0367 74.1609 52.81C74.5609 52.5767 75.0109 52.46 75.5109 52.46ZM77.6709 55.27C77.6709 54.83 77.5809 54.4433 77.4009 54.11C77.2209 53.7767 76.9742 53.52 76.6609 53.34C76.3542 53.16 76.0142 53.07 75.6409 53.07C75.2542 53.07 74.9076 53.1567 74.6009 53.33C74.2942 53.5033 74.0509 53.7567 73.8709 54.09C73.6976 54.4167 73.6109 54.8067 73.6109 55.26C73.6109 55.7067 73.6976 56.1 73.8709 56.44C74.0509 56.7733 74.2942 57.03 74.6009 57.21C74.9076 57.3833 75.2542 57.47 75.6409 57.47C76.0142 57.47 76.3542 57.38 76.6609 57.2C76.9742 57.02 77.2209 56.7633 77.4009 56.43C77.5809 56.0967 77.6709 55.71 77.6709 55.27ZM87.8031 51.01V51.59H85.8631V58H85.1631V51.59H83.2131V51.01H87.8031ZM89.7584 51.51C89.6184 51.51 89.4984 51.46 89.3984 51.36C89.2984 51.26 89.2484 51.1367 89.2484 50.99C89.2484 50.8433 89.2984 50.7233 89.3984 50.63C89.4984 50.53 89.6184 50.48 89.7584 50.48C89.8984 50.48 90.0184 50.53 90.1184 50.63C90.2184 50.7233 90.2684 50.8433 90.2684 50.99C90.2684 51.1367 90.2184 51.26 90.1184 51.36C90.0184 51.46 89.8984 51.51 89.7584 51.51ZM90.1084 52.54V58H89.4084V52.54H90.1084ZM95.1436 58L92.8936 55.55V58H92.1936V50.6H92.8936V54.98L95.0936 52.54H96.0736L93.4836 55.26L96.0936 58H95.1436ZM102.438 54.99C102.438 55.23 102.432 55.4133 102.418 55.54H97.8882C97.9082 55.9533 98.0082 56.3067 98.1882 56.6C98.3682 56.8933 98.6049 57.1167 98.8982 57.27C99.1916 57.4167 99.5116 57.49 99.8582 57.49C100.312 57.49 100.692 57.38 100.998 57.16C101.312 56.94 101.518 56.6433 101.618 56.27H102.358C102.225 56.8033 101.938 57.24 101.498 57.58C101.065 57.9133 100.518 58.08 99.8582 58.08C99.3449 58.08 98.8849 57.9667 98.4782 57.74C98.0716 57.5067 97.7516 57.18 97.5182 56.76C97.2916 56.3333 97.1782 55.8367 97.1782 55.27C97.1782 54.7033 97.2916 54.2067 97.5182 53.78C97.7449 53.3533 98.0616 53.0267 98.4682 52.8C98.8749 52.5733 99.3382 52.46 99.8582 52.46C100.378 52.46 100.832 52.5733 101.218 52.8C101.612 53.0267 101.912 53.3333 102.118 53.72C102.332 54.1 102.438 54.5233 102.438 54.99ZM101.728 54.97C101.735 54.5633 101.652 54.2167 101.478 53.93C101.312 53.6433 101.082 53.4267 100.788 53.28C100.495 53.1333 100.175 53.06 99.8282 53.06C99.3082 53.06 98.8649 53.2267 98.4982 53.56C98.1316 53.8933 97.9282 54.3633 97.8882 54.97H101.728ZM105.129 53.13V56.52C105.129 56.8533 105.192 57.0833 105.319 57.21C105.446 57.3367 105.669 57.4 105.989 57.4H106.629V58H105.879C105.386 58 105.019 57.8867 104.779 57.66C104.539 57.4267 104.419 57.0467 104.419 56.52V53.13H103.659V52.54H104.419V51.17H105.129V52.54H106.629V53.13H105.129ZM117.068 51.01L114.418 58H113.618L110.968 51.01H111.728L114.018 57.24L116.328 51.01H117.068ZM124.159 51.01L121.509 58H120.709L118.059 51.01H118.819L121.109 57.24L123.419 51.01H124.159ZM126.411 51.01V58H125.711V51.01H126.411ZM132.966 53.02C132.966 53.62 132.77 54.1033 132.376 54.47C131.983 54.8367 131.393 55.02 130.606 55.02H129.196V58H128.496V51.01H130.606C131.386 51.01 131.973 51.1933 132.366 51.56C132.766 51.9267 132.966 52.4133 132.966 53.02ZM130.606 54.42C131.7 54.42 132.246 53.9533 132.246 53.02C132.246 52.5533 132.116 52.2 131.856 51.96C131.596 51.72 131.18 51.6 130.606 51.6H129.196V54.42H130.606ZM141.605 58L139.875 55.08H138.585V58H137.885V51.01H139.985C140.765 51.01 141.355 51.1967 141.755 51.57C142.162 51.9433 142.365 52.4333 142.365 53.04C142.365 53.5467 142.218 53.98 141.925 54.34C141.638 54.6933 141.212 54.9233 140.645 55.03L142.445 58H141.605ZM138.585 54.51H139.995C140.542 54.51 140.952 54.3767 141.225 54.11C141.505 53.8433 141.645 53.4867 141.645 53.04C141.645 52.58 141.512 52.2267 141.245 51.98C140.978 51.7267 140.558 51.6 139.985 51.6H138.585V54.51ZM144.954 51.01V58H144.254V51.01H144.954ZM152.539 53.05C152.339 52.59 152.033 52.23 151.619 51.97C151.213 51.7033 150.733 51.57 150.179 51.57C149.659 51.57 149.193 51.69 148.779 51.93C148.366 52.17 148.039 52.5133 147.799 52.96C147.559 53.4 147.439 53.9133 147.439 54.5C147.439 55.0867 147.559 55.6033 147.799 56.05C148.039 56.4967 148.366 56.84 148.779 57.08C149.193 57.32 149.659 57.44 150.179 57.44C150.666 57.44 151.103 57.3367 151.489 57.13C151.883 56.9167 152.196 56.6167 152.429 56.23C152.669 55.8367 152.806 55.38 152.839 54.86H149.899V54.29H153.579V54.8C153.546 55.4133 153.379 55.97 153.079 56.47C152.779 56.9633 152.376 57.3533 151.869 57.64C151.369 57.9267 150.806 58.07 150.179 58.07C149.533 58.07 148.946 57.92 148.419 57.62C147.893 57.3133 147.476 56.89 147.169 56.35C146.869 55.8033 146.719 55.1867 146.719 54.5C146.719 53.8133 146.869 53.2 147.169 52.66C147.476 52.1133 147.893 51.69 148.419 51.39C148.946 51.0833 149.533 50.93 150.179 50.93C150.926 50.93 151.579 51.1167 152.139 51.49C152.699 51.8633 153.106 52.3833 153.359 53.05H152.539ZM160.552 51.01V58H159.852V54.73H156.062V58H155.362V51.01H156.062V54.15H159.852V51.01H160.552ZM166.739 51.01V51.59H164.799V58H164.099V51.59H162.149V51.01H166.739ZM178.088 52.44C178.728 52.44 179.248 52.6433 179.648 53.05C180.055 53.45 180.258 54.0333 180.258 54.8V58H179.568V54.88C179.568 54.2867 179.425 53.8333 179.138 53.52C178.851 53.2067 178.461 53.05 177.968 53.05C177.455 53.05 177.045 53.22 176.738 53.56C176.431 53.9 176.278 54.3933 176.278 55.04V58H175.588V54.88C175.588 54.2867 175.445 53.8333 175.158 53.52C174.871 53.2067 174.478 53.05 173.978 53.05C173.465 53.05 173.055 53.22 172.748 53.56C172.441 53.9 172.288 54.3933 172.288 55.04V58H171.588V52.54H172.288V53.48C172.461 53.14 172.708 52.8833 173.028 52.71C173.348 52.53 173.705 52.44 174.098 52.44C174.571 52.44 174.985 52.5533 175.338 52.78C175.698 53.0067 175.958 53.34 176.118 53.78C176.265 53.3467 176.515 53.0167 176.868 52.79C177.228 52.5567 177.635 52.44 178.088 52.44ZM187.253 54.99C187.253 55.23 187.246 55.4133 187.233 55.54H182.703C182.723 55.9533 182.823 56.3067 183.003 56.6C183.183 56.8933 183.419 57.1167 183.713 57.27C184.006 57.4167 184.326 57.49 184.673 57.49C185.126 57.49 185.506 57.38 185.813 57.16C186.126 56.94 186.333 56.6433 186.433 56.27H187.173C187.039 56.8033 186.753 57.24 186.313 57.58C185.879 57.9133 185.333 58.08 184.673 58.08C184.159 58.08 183.699 57.9667 183.293 57.74C182.886 57.5067 182.566 57.18 182.333 56.76C182.106 56.3333 181.993 55.8367 181.993 55.27C181.993 54.7033 182.106 54.2067 182.333 53.78C182.559 53.3533 182.876 53.0267 183.283 52.8C183.689 52.5733 184.153 52.46 184.673 52.46C185.193 52.46 185.646 52.5733 186.033 52.8C186.426 53.0267 186.726 53.3333 186.933 53.72C187.146 54.1 187.253 54.5233 187.253 54.99ZM186.543 54.97C186.549 54.5633 186.466 54.2167 186.293 53.93C186.126 53.6433 185.896 53.4267 185.603 53.28C185.309 53.1333 184.989 53.06 184.643 53.06C184.123 53.06 183.679 53.2267 183.313 53.56C182.946 53.8933 182.743 54.3633 182.703 54.97H186.543ZM195.533 52.44C196.173 52.44 196.693 52.6433 197.093 53.05C197.5 53.45 197.703 54.0333 197.703 54.8V58H197.013V54.88C197.013 54.2867 196.87 53.8333 196.583 53.52C196.297 53.2067 195.907 53.05 195.413 53.05C194.9 53.05 194.49 53.22 194.183 53.56C193.877 53.9 193.723 54.3933 193.723 55.04V58H193.033V54.88C193.033 54.2867 192.89 53.8333 192.603 53.52C192.317 53.2067 191.923 53.05 191.423 53.05C190.91 53.05 190.5 53.22 190.193 53.56C189.887 53.9 189.733 54.3933 189.733 55.04V58H189.033V52.54H189.733V53.48C189.907 53.14 190.153 52.8833 190.473 52.71C190.793 52.53 191.15 52.44 191.543 52.44C192.017 52.44 192.43 52.5533 192.783 52.78C193.143 53.0067 193.403 53.34 193.563 53.78C193.71 53.3467 193.96 53.0167 194.313 52.79C194.673 52.5567 195.08 52.44 195.533 52.44ZM199.438 55.26C199.438 54.7 199.548 54.21 199.768 53.79C199.995 53.3633 200.305 53.0367 200.698 52.81C201.098 52.5767 201.548 52.46 202.048 52.46C202.568 52.46 203.015 52.58 203.388 52.82C203.768 53.06 204.041 53.3667 204.208 53.74V52.54H204.908V58H204.208V56.79C204.035 57.1633 203.758 57.4733 203.378 57.72C203.005 57.96 202.558 58.08 202.038 58.08C201.545 58.08 201.098 57.9633 200.698 57.73C200.305 57.4967 199.995 57.1667 199.768 56.74C199.548 56.3133 199.438 55.82 199.438 55.26ZM204.208 55.27C204.208 54.83 204.118 54.4433 203.938 54.11C203.758 53.7767 203.511 53.52 203.198 53.34C202.891 53.16 202.551 53.07 202.178 53.07C201.791 53.07 201.445 53.1567 201.138 53.33C200.831 53.5033 200.588 53.7567 200.408 54.09C200.235 54.4167 200.148 54.8067 200.148 55.26C200.148 55.7067 200.235 56.1 200.408 56.44C200.588 56.7733 200.831 57.03 201.138 57.21C201.445 57.3833 201.791 57.47 202.178 57.47C202.551 57.47 202.891 57.38 203.198 57.2C203.511 57.02 203.758 56.7633 203.938 56.43C204.118 56.0967 204.208 55.71 204.208 55.27ZM208.886 58.08C208.259 58.08 207.746 57.9367 207.346 57.65C206.953 57.3567 206.733 56.96 206.686 56.46H207.406C207.439 56.7667 207.583 57.0167 207.836 57.21C208.096 57.3967 208.443 57.49 208.876 57.49C209.256 57.49 209.553 57.4 209.766 57.22C209.986 57.04 210.096 56.8167 210.096 56.55C210.096 56.3633 210.036 56.21 209.916 56.09C209.796 55.97 209.643 55.8767 209.456 55.81C209.276 55.7367 209.029 55.66 208.716 55.58C208.309 55.4733 207.979 55.3667 207.726 55.26C207.473 55.1533 207.256 54.9967 207.076 54.79C206.903 54.5767 206.816 54.2933 206.816 53.94C206.816 53.6733 206.896 53.4267 207.056 53.2C207.216 52.9733 207.443 52.7933 207.736 52.66C208.029 52.5267 208.363 52.46 208.736 52.46C209.323 52.46 209.796 52.61 210.156 52.91C210.516 53.2033 210.709 53.61 210.736 54.13H210.036C210.016 53.81 209.889 53.5533 209.656 53.36C209.429 53.16 209.116 53.06 208.716 53.06C208.363 53.06 208.076 53.1433 207.856 53.31C207.636 53.4767 207.526 53.6833 207.526 53.93C207.526 54.1433 207.589 54.32 207.716 54.46C207.849 54.5933 208.013 54.7 208.206 54.78C208.399 54.8533 208.659 54.9367 208.986 55.03C209.379 55.1367 209.693 55.24 209.926 55.34C210.159 55.44 210.359 55.5867 210.526 55.78C210.693 55.9733 210.779 56.23 210.786 56.55C210.786 56.8433 210.706 57.1067 210.546 57.34C210.386 57.5667 210.163 57.7467 209.876 57.88C209.589 58.0133 209.259 58.08 208.886 58.08ZM217.334 52.54V58H216.634V57.04C216.474 57.38 216.227 57.64 215.894 57.82C215.56 58 215.187 58.09 214.774 58.09C214.12 58.09 213.587 57.89 213.174 57.49C212.76 57.0833 212.554 56.4967 212.554 55.73V52.54H213.244V55.65C213.244 56.2433 213.39 56.6967 213.684 57.01C213.984 57.3233 214.39 57.48 214.904 57.48C215.43 57.48 215.85 57.3133 216.164 56.98C216.477 56.6467 216.634 56.1567 216.634 55.51V52.54H217.334ZM222.382 58L220.132 55.55V58H219.432V50.6H220.132V54.98L222.332 52.54H223.312L220.722 55.26L223.332 58H222.382ZM225.087 51.51C224.947 51.51 224.827 51.46 224.727 51.36C224.627 51.26 224.577 51.1367 224.577 50.99C224.577 50.8433 224.627 50.7233 224.727 50.63C224.827 50.53 224.947 50.48 225.087 50.48C225.227 50.48 225.347 50.53 225.447 50.63C225.547 50.7233 225.597 50.8433 225.597 50.99C225.597 51.1367 225.547 51.26 225.447 51.36C225.347 51.46 225.227 51.51 225.087 51.51ZM225.437 52.54V58H224.737V52.54H225.437ZM233.056 52.46C233.569 52.46 234.016 52.58 234.396 52.82C234.776 53.06 235.049 53.3633 235.216 53.73V52.54H235.916V58.14C235.916 58.64 235.806 59.0833 235.586 59.47C235.372 59.8567 235.072 60.1533 234.686 60.36C234.299 60.5733 233.859 60.68 233.366 60.68C232.666 60.68 232.082 60.5133 231.616 60.18C231.156 59.8467 230.869 59.3933 230.756 58.82H231.446C231.566 59.2 231.792 59.5033 232.126 59.73C232.466 59.9567 232.879 60.07 233.366 60.07C233.719 60.07 234.036 59.9933 234.316 59.84C234.596 59.6933 234.816 59.4733 234.976 59.18C235.136 58.8867 235.216 58.54 235.216 58.14V56.79C235.042 57.1633 234.766 57.4733 234.386 57.72C234.012 57.96 233.569 58.08 233.056 58.08C232.556 58.08 232.106 57.9633 231.706 57.73C231.312 57.4967 231.002 57.1667 230.776 56.74C230.556 56.3133 230.446 55.82 230.446 55.26C230.446 54.7 230.556 54.21 230.776 53.79C231.002 53.3633 231.312 53.0367 231.706 52.81C232.106 52.5767 232.556 52.46 233.056 52.46ZM235.216 55.27C235.216 54.83 235.126 54.4433 234.946 54.11C234.766 53.7767 234.519 53.52 234.206 53.34C233.899 53.16 233.559 53.07 233.186 53.07C232.799 53.07 232.452 53.1567 232.146 53.33C231.839 53.5033 231.596 53.7567 231.416 54.09C231.242 54.4167 231.156 54.8067 231.156 55.26C231.156 55.7067 231.242 56.1 231.416 56.44C231.596 56.7733 231.839 57.03 232.146 57.21C232.452 57.3833 232.799 57.47 233.186 57.47C233.559 57.47 233.899 57.38 234.206 57.2C234.519 57.02 234.766 56.7633 234.946 56.43C235.126 56.0967 235.216 55.71 235.216 55.27ZM237.694 55.26C237.694 54.7 237.804 54.21 238.024 53.79C238.251 53.3633 238.561 53.0367 238.954 52.81C239.354 52.5767 239.804 52.46 240.304 52.46C240.824 52.46 241.271 52.58 241.644 52.82C242.024 53.06 242.297 53.3667 242.464 53.74V52.54H243.164V58H242.464V56.79C242.291 57.1633 242.014 57.4733 241.634 57.72C241.261 57.96 240.814 58.08 240.294 58.08C239.801 58.08 239.354 57.9633 238.954 57.73C238.561 57.4967 238.251 57.1667 238.024 56.74C237.804 56.3133 237.694 55.82 237.694 55.26ZM242.464 55.27C242.464 54.83 242.374 54.4433 242.194 54.11C242.014 53.7767 241.767 53.52 241.454 53.34C241.147 53.16 240.807 53.07 240.434 53.07C240.047 53.07 239.701 53.1567 239.394 53.33C239.087 53.5033 238.844 53.7567 238.664 54.09C238.491 54.4167 238.404 54.8067 238.404 55.26C238.404 55.7067 238.491 56.1 238.664 56.44C238.844 56.7733 239.087 57.03 239.394 57.21C239.701 57.3833 240.047 57.47 240.434 57.47C240.807 57.47 241.147 57.38 241.454 57.2C241.767 57.02 242.014 56.7633 242.194 56.43C242.374 56.0967 242.464 55.71 242.464 55.27ZM246.172 53.13V56.52C246.172 56.8533 246.235 57.0833 246.362 57.21C246.489 57.3367 246.712 57.4 247.032 57.4H247.672V58H246.922C246.429 58 246.062 57.8867 245.822 57.66C245.582 57.4267 245.462 57.0467 245.462 56.52V53.13H244.702V52.54H245.462V51.17H246.172V52.54H247.672V53.13H246.172ZM254.266 54.99C254.266 55.23 254.26 55.4133 254.246 55.54H249.716C249.736 55.9533 249.836 56.3067 250.016 56.6C250.196 56.8933 250.433 57.1167 250.726 57.27C251.02 57.4167 251.34 57.49 251.686 57.49C252.14 57.49 252.52 57.38 252.826 57.16C253.14 56.94 253.346 56.6433 253.446 56.27H254.186C254.053 56.8033 253.766 57.24 253.326 57.58C252.893 57.9133 252.346 58.08 251.686 58.08C251.173 58.08 250.713 57.9667 250.306 57.74C249.9 57.5067 249.58 57.18 249.346 56.76C249.12 56.3333 249.006 55.8367 249.006 55.27C249.006 54.7033 249.12 54.2067 249.346 53.78C249.573 53.3533 249.89 53.0267 250.296 52.8C250.703 52.5733 251.166 52.46 251.686 52.46C252.206 52.46 252.66 52.5733 253.046 52.8C253.44 53.0267 253.74 53.3333 253.946 53.72C254.16 54.1 254.266 54.5233 254.266 54.99ZM253.556 54.97C253.563 54.5633 253.48 54.2167 253.306 53.93C253.14 53.6433 252.91 53.4267 252.616 53.28C252.323 53.1333 252.003 53.06 251.656 53.06C251.136 53.06 250.693 53.2267 250.326 53.56C249.96 53.8933 249.756 54.3633 249.716 54.97H253.556ZM259.001 57.45C260.228 56.53 261.175 55.7067 261.841 54.98C262.515 54.2467 262.851 53.53 262.851 52.83C262.851 52.37 262.735 52.0033 262.501 51.73C262.275 51.45 261.901 51.31 261.381 51.31C260.875 51.31 260.481 51.47 260.201 51.79C259.928 52.1033 259.775 52.5233 259.741 53.05H259.061C259.101 52.31 259.328 51.7367 259.741 51.33C260.161 50.9167 260.708 50.71 261.381 50.71C262.028 50.71 262.551 50.8933 262.951 51.26C263.351 51.62 263.551 52.1333 263.551 52.8C263.551 53.6067 263.215 54.39 262.541 55.15C261.875 55.9033 261.051 56.64 260.071 57.36H263.771V57.95H259.001V57.45Z" fill="#7E7E7E"/>
<path d="M27.5 87.4062C26.2948 87.4062 25.1166 87.7636 24.1145 88.4332C23.1124 89.1028 22.3313 90.0545 21.8701 91.168C21.4089 92.2815 21.2882 93.5068 21.5233 94.6888C21.7585 95.8709 22.3388 96.9567 23.1911 97.8089C24.0433 98.6612 25.1291 99.2415 26.3112 99.4767C27.4932 99.7118 28.7185 99.5911 29.832 99.1299C30.9455 98.6687 31.8972 97.8876 32.5668 96.8855C33.2364 95.8834 33.5938 94.7052 33.5938 93.5C33.592 91.8844 32.9495 90.3354 31.807 89.193C30.6646 88.0505 29.1156 87.408 27.5 87.4062ZM30.7813 93.9688H27.5C27.3757 93.9688 27.2565 93.9194 27.1685 93.8315C27.0806 93.7435 27.0313 93.6243 27.0313 93.5V90.2188C27.0313 90.0944 27.0806 89.9752 27.1685 89.8873C27.2565 89.7994 27.3757 89.75 27.5 89.75C27.6243 89.75 27.7436 89.7994 27.8315 89.8873C27.9194 89.9752 27.9688 90.0944 27.9688 90.2188V93.0312H30.7813C30.9056 93.0312 31.0248 93.0806 31.1127 93.1685C31.2006 93.2565 31.25 93.3757 31.25 93.5C31.25 93.6243 31.2006 93.7435 31.1127 93.8315C31.0248 93.9194 30.9056 93.9688 30.7813 93.9688Z" fill="#980019"/>
<path d="M45.2647 93.692C45.5687 93.74 45.8447 93.864 46.0927 94.064C46.3487 94.264 46.5487 94.512 46.6927 94.808C46.8447 95.104 46.9207 95.42 46.9207 95.756C46.9207 96.18 46.8127 96.564 46.5967 96.908C46.3807 97.244 46.0647 97.512 45.6487 97.712C45.2407 97.904 44.7567 98 44.1967 98H41.0767V89.636H44.0767C44.6447 89.636 45.1287 89.732 45.5287 89.924C45.9287 90.108 46.2287 90.36 46.4287 90.68C46.6287 91 46.7287 91.36 46.7287 91.76C46.7287 92.256 46.5927 92.668 46.3207 92.996C46.0567 93.316 45.7047 93.548 45.2647 93.692ZM42.1687 93.248H44.0047C44.5167 93.248 44.9127 93.128 45.1927 92.888C45.4727 92.648 45.6127 92.316 45.6127 91.892C45.6127 91.468 45.4727 91.136 45.1927 90.896C44.9127 90.656 44.5087 90.536 43.9807 90.536H42.1687V93.248ZM44.1007 97.1C44.6447 97.1 45.0687 96.972 45.3727 96.716C45.6767 96.46 45.8287 96.104 45.8287 95.648C45.8287 95.184 45.6687 94.82 45.3487 94.556C45.0287 94.284 44.6007 94.148 44.0647 94.148H42.1687V97.1H44.1007ZM54.8361 94.46C54.8361 94.668 54.8241 94.888 54.8001 95.12H49.5441C49.5841 95.768 49.8041 96.276 50.2041 96.644C50.6121 97.004 51.1041 97.184 51.6801 97.184C52.1521 97.184 52.5441 97.076 52.8561 96.86C53.1761 96.636 53.4001 96.34 53.5281 95.972H54.7041C54.5281 96.604 54.1761 97.12 53.6481 97.52C53.1201 97.912 52.4641 98.108 51.6801 98.108C51.0561 98.108 50.4961 97.968 50.0001 97.688C49.5121 97.408 49.1281 97.012 48.8481 96.5C48.5681 95.98 48.4281 95.38 48.4281 94.7C48.4281 94.02 48.5641 93.424 48.8361 92.912C49.1081 92.4 49.4881 92.008 49.9761 91.736C50.4721 91.456 51.0401 91.316 51.6801 91.316C52.3041 91.316 52.8561 91.452 53.3361 91.724C53.8161 91.996 54.1841 92.372 54.4401 92.852C54.7041 93.324 54.8361 93.86 54.8361 94.46ZM53.7081 94.232C53.7081 93.816 53.6161 93.46 53.4321 93.164C53.2481 92.86 52.9961 92.632 52.6761 92.48C52.3641 92.32 52.0161 92.24 51.6321 92.24C51.0801 92.24 50.6081 92.416 50.2161 92.768C49.8321 93.12 49.6121 93.608 49.5561 94.232H53.7081ZM57.7695 92.492C57.9615 92.116 58.2335 91.824 58.5855 91.616C58.9455 91.408 59.3815 91.304 59.8935 91.304V92.432H59.6055C58.3815 92.432 57.7695 93.096 57.7695 94.424V98H56.6775V91.424H57.7695V92.492ZM61.1461 94.688C61.1461 94.016 61.2821 93.428 61.5541 92.924C61.8261 92.412 62.1981 92.016 62.6701 91.736C63.1501 91.456 63.6821 91.316 64.2661 91.316C64.8421 91.316 65.3421 91.44 65.7661 91.688C66.1901 91.936 66.5061 92.248 66.7141 92.624V91.424H67.8181V98H66.7141V96.776C66.4981 97.16 66.1741 97.48 65.7421 97.736C65.3181 97.984 64.8221 98.108 64.2541 98.108C63.6701 98.108 63.1421 97.964 62.6701 97.676C62.1981 97.388 61.8261 96.984 61.5541 96.464C61.2821 95.944 61.1461 95.352 61.1461 94.688ZM66.7141 94.7C66.7141 94.204 66.6141 93.772 66.4141 93.404C66.2141 93.036 65.9421 92.756 65.5981 92.564C65.2621 92.364 64.8901 92.264 64.4821 92.264C64.0741 92.264 63.7021 92.36 63.3661 92.552C63.0301 92.744 62.7621 93.024 62.5621 93.392C62.3621 93.76 62.2621 94.192 62.2621 94.688C62.2621 95.192 62.3621 95.632 62.5621 96.008C62.7621 96.376 63.0301 96.66 63.3661 96.86C63.7021 97.052 64.0741 97.148 64.4821 97.148C64.8901 97.148 65.2621 97.052 65.5981 96.86C65.9421 96.66 66.2141 96.376 66.4141 96.008C66.6141 95.632 66.7141 95.196 66.7141 94.7ZM73.7355 98L71.1555 95.096V98H70.0635V89.12H71.1555V94.34L73.6875 91.424H75.2115L72.1155 94.7L75.2235 98H73.7355ZM79.9032 91.304C80.3992 91.304 80.8472 91.412 81.2472 91.628C81.6472 91.836 81.9592 92.152 82.1832 92.576C82.4152 93 82.5312 93.516 82.5312 94.124V98H81.4512V94.28C81.4512 93.624 81.2872 93.124 80.9592 92.78C80.6312 92.428 80.1832 92.252 79.6152 92.252C79.0392 92.252 78.5792 92.432 78.2352 92.792C77.8992 93.152 77.7312 93.676 77.7312 94.364V98H76.6392V89.12H77.7312V92.36C77.9472 92.024 78.2432 91.764 78.6192 91.58C79.0032 91.396 79.4312 91.304 79.9032 91.304ZM85.279 90.356C85.071 90.356 84.895 90.284 84.751 90.14C84.607 89.996 84.535 89.82 84.535 89.612C84.535 89.404 84.607 89.228 84.751 89.084C84.895 88.94 85.071 88.868 85.279 88.868C85.479 88.868 85.647 88.94 85.783 89.084C85.927 89.228 85.999 89.404 85.999 89.612C85.999 89.82 85.927 89.996 85.783 90.14C85.647 90.284 85.479 90.356 85.279 90.356ZM85.807 91.424V98H84.715V91.424H85.807ZM89.1601 92.492C89.3521 92.116 89.6241 91.824 89.9761 91.616C90.3361 91.408 90.7721 91.304 91.2841 91.304V92.432H90.9961C89.7721 92.432 89.1601 93.096 89.1601 94.424V98H88.0681V91.424H89.1601V92.492ZM96.3399 91.508C96.3959 90.772 96.6799 90.196 97.1919 89.78C97.7039 89.364 98.3679 89.156 99.1839 89.156C99.7279 89.156 100.196 89.256 100.588 89.456C100.988 89.648 101.288 89.912 101.488 90.248C101.696 90.584 101.8 90.964 101.8 91.388C101.8 91.884 101.656 92.312 101.368 92.672C101.088 93.032 100.72 93.264 100.264 93.368V93.428C100.784 93.556 101.196 93.808 101.5 94.184C101.804 94.56 101.956 95.052 101.956 95.66C101.956 96.116 101.852 96.528 101.644 96.896C101.436 97.256 101.124 97.54 100.708 97.748C100.292 97.956 99.7919 98.06 99.2079 98.06C98.3599 98.06 97.6639 97.84 97.1199 97.4C96.5759 96.952 96.2719 96.32 96.2079 95.504H97.2639C97.3199 95.984 97.5159 96.376 97.8519 96.68C98.1879 96.984 98.6359 97.136 99.1959 97.136C99.7559 97.136 100.18 96.992 100.468 96.704C100.764 96.408 100.912 96.028 100.912 95.564C100.912 94.964 100.712 94.532 100.312 94.268C99.9119 94.004 99.3079 93.872 98.4999 93.872H98.2239V92.96H98.5119C99.2479 92.952 99.8039 92.832 100.18 92.6C100.556 92.36 100.744 91.992 100.744 91.496C100.744 91.072 100.604 90.732 100.324 90.476C100.052 90.22 99.6599 90.092 99.1479 90.092C98.6519 90.092 98.2519 90.22 97.9479 90.476C97.6439 90.732 97.4639 91.076 97.4079 91.508H96.3399ZM103.83 93.572C103.83 92.196 104.054 91.124 104.502 90.356C104.95 89.58 105.734 89.192 106.854 89.192C107.966 89.192 108.746 89.58 109.194 90.356C109.642 91.124 109.866 92.196 109.866 93.572C109.866 94.972 109.642 96.06 109.194 96.836C108.746 97.612 107.966 98 106.854 98C105.734 98 104.95 97.612 104.502 96.836C104.054 96.06 103.83 94.972 103.83 93.572ZM108.786 93.572C108.786 92.876 108.738 92.288 108.642 91.808C108.554 91.32 108.366 90.928 108.078 90.632C107.798 90.336 107.39 90.188 106.854 90.188C106.31 90.188 105.894 90.336 105.606 90.632C105.326 90.928 105.138 91.32 105.042 91.808C104.954 92.288 104.91 92.876 104.91 93.572C104.91 94.292 104.954 94.896 105.042 95.384C105.138 95.872 105.326 96.264 105.606 96.56C105.894 96.856 106.31 97.004 106.854 97.004C107.39 97.004 107.798 96.856 108.078 96.56C108.366 96.264 108.554 95.872 108.642 95.384C108.738 94.896 108.786 94.292 108.786 93.572ZM124.029 89.696V98H122.937V91.808L120.177 98H119.409L116.637 91.796V98H115.545V89.696H116.721L119.793 96.56L122.865 89.696H124.029ZM125.873 94.688C125.873 94.016 126.009 93.428 126.281 92.924C126.553 92.412 126.925 92.016 127.397 91.736C127.877 91.456 128.409 91.316 128.993 91.316C129.569 91.316 130.069 91.44 130.493 91.688C130.917 91.936 131.233 92.248 131.441 92.624V91.424H132.545V98H131.441V96.776C131.225 97.16 130.901 97.48 130.469 97.736C130.045 97.984 129.549 98.108 128.981 98.108C128.397 98.108 127.869 97.964 127.397 97.676C126.925 97.388 126.553 96.984 126.281 96.464C126.009 95.944 125.873 95.352 125.873 94.688ZM131.441 94.7C131.441 94.204 131.341 93.772 131.141 93.404C130.941 93.036 130.669 92.756 130.325 92.564C129.989 92.364 129.617 92.264 129.209 92.264C128.801 92.264 128.429 92.36 128.093 92.552C127.757 92.744 127.489 93.024 127.289 93.392C127.089 93.76 126.989 94.192 126.989 94.688C126.989 95.192 127.089 95.632 127.289 96.008C127.489 96.376 127.757 96.66 128.093 96.86C128.429 97.052 128.801 97.148 129.209 97.148C129.617 97.148 129.989 97.052 130.325 96.86C130.669 96.66 130.941 96.376 131.141 96.008C131.341 95.632 131.441 95.196 131.441 94.7ZM140.454 91.424L136.494 101.096H135.366L136.662 97.928L134.01 91.424H135.222L137.286 96.752L139.326 91.424H140.454ZM145.239 97.124C146.255 96.308 147.051 95.64 147.627 95.12C148.203 94.592 148.687 94.044 149.079 93.476C149.479 92.9 149.679 92.336 149.679 91.784C149.679 91.264 149.551 90.856 149.295 90.56C149.047 90.256 148.643 90.104 148.083 90.104C147.539 90.104 147.115 90.276 146.811 90.62C146.515 90.956 146.355 91.408 146.331 91.976H145.275C145.307 91.08 145.579 90.388 146.091 89.9C146.603 89.412 147.263 89.168 148.071 89.168C148.895 89.168 149.547 89.396 150.027 89.852C150.515 90.308 150.759 90.936 150.759 91.736C150.759 92.4 150.559 93.048 150.159 93.68C149.767 94.304 149.319 94.856 148.815 95.336C148.311 95.808 147.667 96.36 146.883 96.992H151.011V97.904H145.239V97.124ZM152.673 93.572C152.673 92.196 152.897 91.124 153.345 90.356C153.793 89.58 154.577 89.192 155.697 89.192C156.809 89.192 157.589 89.58 158.037 90.356C158.485 91.124 158.709 92.196 158.709 93.572C158.709 94.972 158.485 96.06 158.037 96.836C157.589 97.612 156.809 98 155.697 98C154.577 98 153.793 97.612 153.345 96.836C152.897 96.06 152.673 94.972 152.673 93.572ZM157.629 93.572C157.629 92.876 157.581 92.288 157.485 91.808C157.397 91.32 157.209 90.928 156.921 90.632C156.641 90.336 156.233 90.188 155.697 90.188C155.153 90.188 154.737 90.336 154.449 90.632C154.169 90.928 153.981 91.32 153.885 91.808C153.797 92.288 153.753 92.876 153.753 93.572C153.753 94.292 153.797 94.896 153.885 95.384C153.981 95.872 154.169 96.264 154.449 96.56C154.737 96.856 155.153 97.004 155.697 97.004C156.233 97.004 156.641 96.856 156.921 96.56C157.209 96.264 157.397 95.872 157.485 95.384C157.581 94.896 157.629 94.292 157.629 93.572ZM160.476 97.124C161.492 96.308 162.288 95.64 162.864 95.12C163.44 94.592 163.924 94.044 164.316 93.476C164.716 92.9 164.916 92.336 164.916 91.784C164.916 91.264 164.788 90.856 164.532 90.56C164.284 90.256 163.88 90.104 163.32 90.104C162.776 90.104 162.352 90.276 162.048 90.62C161.752 90.956 161.592 91.408 161.568 91.976H160.512C160.544 91.08 160.816 90.388 161.328 89.9C161.84 89.412 162.5 89.168 163.308 89.168C164.132 89.168 164.784 89.396 165.264 89.852C165.752 90.308 165.996 90.936 165.996 91.736C165.996 92.4 165.796 93.048 165.396 93.68C165.004 94.304 164.556 94.856 164.052 95.336C163.548 95.808 162.904 96.36 162.12 96.992H166.248V97.904H160.476V97.124ZM167.647 96.068V95.24L171.859 89.408H173.167V95.12H174.367V96.068H173.167V98H172.087V96.068H167.647ZM172.135 90.548L168.907 95.12H172.135V90.548ZM181.173 95.468C180.765 95.468 180.417 95.328 180.129 95.048C179.849 94.76 179.709 94.412 179.709 94.004C179.709 93.588 179.849 93.24 180.129 92.96C180.417 92.672 180.765 92.528 181.173 92.528C181.589 92.528 181.941 92.672 182.229 92.96C182.517 93.24 182.661 93.588 182.661 94.004C182.661 94.412 182.517 94.76 182.229 95.048C181.941 95.328 181.589 95.468 181.173 95.468ZM188.113 90.32V89.324H190.369V98H189.265V90.32H188.113ZM192.513 97.124C193.529 96.308 194.325 95.64 194.901 95.12C195.477 94.592 195.961 94.044 196.353 93.476C196.753 92.9 196.953 92.336 196.953 91.784C196.953 91.264 196.825 90.856 196.569 90.56C196.321 90.256 195.917 90.104 195.357 90.104C194.813 90.104 194.389 90.276 194.085 90.62C193.789 90.956 193.629 91.408 193.605 91.976H192.549C192.581 91.08 192.853 90.388 193.365 89.9C193.877 89.412 194.537 89.168 195.345 89.168C196.169 89.168 196.821 89.396 197.301 89.852C197.789 90.308 198.033 90.936 198.033 91.736C198.033 92.4 197.833 93.048 197.433 93.68C197.041 94.304 196.593 94.856 196.089 95.336C195.585 95.808 194.941 96.36 194.157 96.992H198.285V97.904H192.513V97.124ZM200.476 98.072C200.268 98.072 200.092 98 199.948 97.856C199.804 97.712 199.732 97.536 199.732 97.328C199.732 97.12 199.804 96.944 199.948 96.8C200.092 96.656 200.268 96.584 200.476 96.584C200.676 96.584 200.844 96.656 200.98 96.8C201.124 96.944 201.196 97.12 201.196 97.328C201.196 97.536 201.124 97.712 200.98 97.856C200.844 98 200.676 98.072 200.476 98.072ZM200.476 92.936C200.268 92.936 200.092 92.864 199.948 92.72C199.804 92.576 199.732 92.4 199.732 92.192C199.732 91.984 199.804 91.808 199.948 91.664C200.092 91.52 200.268 91.448 200.476 91.448C200.676 91.448 200.844 91.52 200.98 91.664C201.124 91.808 201.196 91.984 201.196 92.192C201.196 92.4 201.124 92.576 200.98 92.72C200.844 92.864 200.676 92.936 200.476 92.936ZM202.902 93.572C202.902 92.196 203.126 91.124 203.574 90.356C204.022 89.58 204.806 89.192 205.926 89.192C207.038 89.192 207.818 89.58 208.266 90.356C208.714 91.124 208.938 92.196 208.938 93.572C208.938 94.972 208.714 96.06 208.266 96.836C207.818 97.612 207.038 98 205.926 98C204.806 98 204.022 97.612 203.574 96.836C203.126 96.06 202.902 94.972 202.902 93.572ZM207.858 93.572C207.858 92.876 207.81 92.288 207.714 91.808C207.626 91.32 207.438 90.928 207.15 90.632C206.87 90.336 206.462 90.188 205.926 90.188C205.382 90.188 204.966 90.336 204.678 90.632C204.398 90.928 204.21 91.32 204.114 91.808C204.026 92.288 203.982 92.876 203.982 93.572C203.982 94.292 204.026 94.896 204.114 95.384C204.21 95.872 204.398 96.264 204.678 96.56C204.966 96.856 205.382 97.004 205.926 97.004C206.462 97.004 206.87 96.856 207.15 96.56C207.438 96.264 207.626 95.872 207.714 95.384C207.81 94.896 207.858 94.292 207.858 93.572ZM210.837 93.572C210.837 92.196 211.061 91.124 211.509 90.356C211.957 89.58 212.741 89.192 213.861 89.192C214.973 89.192 215.753 89.58 216.201 90.356C216.649 91.124 216.873 92.196 216.873 93.572C216.873 94.972 216.649 96.06 216.201 96.836C215.753 97.612 214.973 98 213.861 98C212.741 98 211.957 97.612 211.509 96.836C211.061 96.06 210.837 94.972 210.837 93.572ZM215.793 93.572C215.793 92.876 215.745 92.288 215.649 91.808C215.561 91.32 215.373 90.928 215.085 90.632C214.805 90.336 214.397 90.188 213.861 90.188C213.317 90.188 212.901 90.336 212.613 90.632C212.333 90.928 212.145 91.32 212.049 91.808C211.961 92.288 211.917 92.876 211.917 93.572C211.917 94.292 211.961 94.896 212.049 95.384C212.145 95.872 212.333 96.264 212.613 96.56C212.901 96.856 213.317 97.004 213.861 97.004C214.397 97.004 214.805 96.856 215.085 96.56C215.373 96.264 215.561 95.872 215.649 95.384C215.745 94.896 215.793 94.292 215.793 93.572ZM233.064 89.636L230.64 98H229.416L227.472 91.268L225.456 98L224.244 98.012L221.904 89.636H223.068L224.892 96.728L226.908 89.636H228.132L230.052 96.704L231.888 89.636H233.064ZM235.751 89.636V98H234.659V89.636H235.751ZM242.2 93.692C242.504 93.74 242.78 93.864 243.028 94.064C243.284 94.264 243.484 94.512 243.628 94.808C243.78 95.104 243.856 95.42 243.856 95.756C243.856 96.18 243.748 96.564 243.532 96.908C243.316 97.244 243 97.512 242.584 97.712C242.176 97.904 241.692 98 241.132 98H238.012V89.636H241.012C241.58 89.636 242.064 89.732 242.464 89.924C242.864 90.108 243.164 90.36 243.364 90.68C243.564 91 243.664 91.36 243.664 91.76C243.664 92.256 243.528 92.668 243.256 92.996C242.992 93.316 242.64 93.548 242.2 93.692ZM239.104 93.248H240.94C241.452 93.248 241.848 93.128 242.128 92.888C242.408 92.648 242.548 92.316 242.548 91.892C242.548 91.468 242.408 91.136 242.128 90.896C241.848 90.656 241.444 90.536 240.916 90.536H239.104V93.248ZM241.036 97.1C241.58 97.1 242.004 96.972 242.308 96.716C242.612 96.46 242.764 96.104 242.764 95.648C242.764 95.184 242.604 94.82 242.284 94.556C241.964 94.284 241.536 94.148 241 94.148H239.104V97.1H241.036Z" fill="#980019"/>
<path d="M25.1558 132L23.3078 128.736H22.5158V132H20.8358V123.624H23.9798C24.6278 123.624 25.1798 123.74 25.6358 123.972C26.0918 124.196 26.4318 124.504 26.6558 124.896C26.8878 125.28 27.0038 125.712 27.0038 126.192C27.0038 126.744 26.8438 127.244 26.5238 127.692C26.2038 128.132 25.7278 128.436 25.0958 128.604L27.0998 132H25.1558ZM22.5158 127.476H23.9198C24.3758 127.476 24.7158 127.368 24.9398 127.152C25.1638 126.928 25.2758 126.62 25.2758 126.228C25.2758 125.844 25.1638 125.548 24.9398 125.34C24.7158 125.124 24.3758 125.016 23.9198 125.016H22.5158V127.476ZM30.7033 126.312C30.9193 126.008 31.2153 125.756 31.5913 125.556C31.9753 125.348 32.4113 125.244 32.8993 125.244C33.4673 125.244 33.9793 125.384 34.4353 125.664C34.8993 125.944 35.2633 126.344 35.5273 126.864C35.7993 127.376 35.9353 127.972 35.9353 128.652C35.9353 129.332 35.7993 129.936 35.5273 130.464C35.2633 130.984 34.8993 131.388 34.4353 131.676C33.9793 131.964 33.4673 132.108 32.8993 132.108C32.4113 132.108 31.9793 132.008 31.6033 131.808C31.2353 131.608 30.9353 131.356 30.7033 131.052V135.168H29.0233V125.352H30.7033V126.312ZM34.2193 128.652C34.2193 128.252 34.1353 127.908 33.9673 127.62C33.8073 127.324 33.5913 127.1 33.3193 126.948C33.0553 126.796 32.7673 126.72 32.4553 126.72C32.1513 126.72 31.8633 126.8 31.5913 126.96C31.3273 127.112 31.1113 127.336 30.9433 127.632C30.7833 127.928 30.7033 128.276 30.7033 128.676C30.7033 129.076 30.7833 129.424 30.9433 129.72C31.1113 130.016 31.3273 130.244 31.5913 130.404C31.8633 130.556 32.1513 130.632 32.4553 130.632C32.7673 130.632 33.0553 130.552 33.3193 130.392C33.5913 130.232 33.8073 130.004 33.9673 129.708C34.1353 129.412 34.2193 129.06 34.2193 128.652ZM38.4001 132.084C38.0961 132.084 37.8441 131.992 37.6441 131.808C37.4521 131.616 37.3561 131.38 37.3561 131.1C37.3561 130.82 37.4521 130.588 37.6441 130.404C37.8441 130.212 38.0961 130.116 38.4001 130.116C38.6961 130.116 38.9401 130.212 39.1321 130.404C39.3241 130.588 39.4201 130.82 39.4201 131.1C39.4201 131.38 39.3241 131.616 39.1321 131.808C38.9401 131.992 38.6961 132.084 38.4001 132.084ZM50.0087 124.524L46.8167 132H45.1127L48.3287 124.716H44.2247V123.276H50.0087V124.524ZM57.3949 124.704H53.5069V126.756C53.6749 126.548 53.9149 126.38 54.2269 126.252C54.5389 126.116 54.8709 126.048 55.2229 126.048C55.8629 126.048 56.3869 126.188 56.7949 126.468C57.2029 126.748 57.4989 127.108 57.6829 127.548C57.8669 127.98 57.9589 128.444 57.9589 128.94C57.9589 129.86 57.6949 130.6 57.1669 131.16C56.6469 131.72 55.9029 132 54.9349 132C54.0229 132 53.2949 131.772 52.7509 131.316C52.2069 130.86 51.8989 130.264 51.8269 129.528H53.4589C53.5309 129.848 53.6909 130.104 53.9389 130.296C54.1949 130.488 54.5189 130.584 54.9109 130.584C55.3829 130.584 55.7389 130.436 55.9789 130.14C56.2189 129.844 56.3389 129.452 56.3389 128.964C56.3389 128.468 56.2149 128.092 55.9669 127.836C55.7269 127.572 55.3709 127.44 54.8989 127.44C54.5629 127.44 54.2829 127.524 54.0589 127.692C53.8349 127.86 53.6749 128.084 53.5789 128.364H51.9709V123.228H57.3949V124.704ZM60.6736 132.084C60.3696 132.084 60.1176 131.992 59.9176 131.808C59.7256 131.616 59.6296 131.38 59.6296 131.1C59.6296 130.82 59.7256 130.588 59.9176 130.404C60.1176 130.212 60.3696 130.116 60.6736 130.116C60.9696 130.116 61.2136 130.212 61.4056 130.404C61.5976 130.588 61.6936 130.82 61.6936 131.1C61.6936 131.38 61.5976 131.616 61.4056 131.808C61.2136 131.992 60.9696 132.084 60.6736 132.084ZM63.3548 127.512C63.3548 126.128 63.6028 125.044 64.0988 124.26C64.6028 123.476 65.4348 123.084 66.5948 123.084C67.7548 123.084 68.5828 123.476 69.0788 124.26C69.5828 125.044 69.8348 126.128 69.8348 127.512C69.8348 128.904 69.5828 129.996 69.0788 130.788C68.5828 131.58 67.7548 131.976 66.5948 131.976C65.4348 131.976 64.6028 131.58 64.0988 130.788C63.6028 129.996 63.3548 128.904 63.3548 127.512ZM68.1788 127.512C68.1788 126.92 68.1388 126.424 68.0588 126.024C67.9868 125.616 67.8348 125.284 67.6028 125.028C67.3788 124.772 67.0428 124.644 66.5948 124.644C66.1468 124.644 65.8068 124.772 65.5748 125.028C65.3508 125.284 65.1988 125.616 65.1188 126.024C65.0468 126.424 65.0108 126.92 65.0108 127.512C65.0108 128.12 65.0468 128.632 65.1188 129.048C65.1908 129.456 65.3428 129.788 65.5748 130.044C65.8068 130.292 66.1468 130.416 66.5948 130.416C67.0428 130.416 67.3828 130.292 67.6148 130.044C67.8468 129.788 67.9988 129.456 68.0708 129.048C68.1428 128.632 68.1788 128.12 68.1788 127.512ZM71.6126 127.512C71.6126 126.128 71.8606 125.044 72.3566 124.26C72.8606 123.476 73.6926 123.084 74.8526 123.084C76.0126 123.084 76.8406 123.476 77.3366 124.26C77.8406 125.044 78.0926 126.128 78.0926 127.512C78.0926 128.904 77.8406 129.996 77.3366 130.788C76.8406 131.58 76.0126 131.976 74.8526 131.976C73.6926 131.976 72.8606 131.58 72.3566 130.788C71.8606 129.996 71.6126 128.904 71.6126 127.512ZM76.4366 127.512C76.4366 126.92 76.3966 126.424 76.3166 126.024C76.2446 125.616 76.0926 125.284 75.8606 125.028C75.6366 124.772 75.3006 124.644 74.8526 124.644C74.4046 124.644 74.0646 124.772 73.8326 125.028C73.6086 125.284 73.4566 125.616 73.3766 126.024C73.3046 126.424 73.2686 126.92 73.2686 127.512C73.2686 128.12 73.3046 128.632 73.3766 129.048C73.4486 129.456 73.6006 129.788 73.8326 130.044C74.0646 130.292 74.4046 130.416 74.8526 130.416C75.3006 130.416 75.6406 130.292 75.8726 130.044C76.1046 129.788 76.2566 129.456 76.3286 129.048C76.4006 128.632 76.4366 128.12 76.4366 127.512ZM79.8704 127.512C79.8704 126.128 80.1184 125.044 80.6144 124.26C81.1184 123.476 81.9504 123.084 83.1104 123.084C84.2704 123.084 85.0984 123.476 85.5944 124.26C86.0984 125.044 86.3504 126.128 86.3504 127.512C86.3504 128.904 86.0984 129.996 85.5944 130.788C85.0984 131.58 84.2704 131.976 83.1104 131.976C81.9504 131.976 81.1184 131.58 80.6144 130.788C80.1184 129.996 79.8704 128.904 79.8704 127.512ZM84.6944 127.512C84.6944 126.92 84.6544 126.424 84.5744 126.024C84.5024 125.616 84.3504 125.284 84.1184 125.028C83.8944 124.772 83.5584 124.644 83.1104 124.644C82.6624 124.644 82.3224 124.772 82.0904 125.028C81.8664 125.284 81.7144 125.616 81.6344 126.024C81.5624 126.424 81.5264 126.92 81.5264 127.512C81.5264 128.12 81.5624 128.632 81.6344 129.048C81.7064 129.456 81.8584 129.788 82.0904 130.044C82.3224 130.292 82.6624 130.416 83.1104 130.416C83.5584 130.416 83.8984 130.292 84.1304 130.044C84.3624 129.788 84.5144 129.456 84.5864 129.048C84.6584 128.632 84.6944 128.12 84.6944 127.512Z" fill="#1B1C20"/>
<path d="M315.75 128C315.75 128.166 315.684 128.325 315.567 128.442C315.45 128.559 315.291 128.625 315.125 128.625H308.875C308.709 128.625 308.55 128.559 308.433 128.442C308.316 128.325 308.25 128.166 308.25 128C308.25 127.834 308.316 127.675 308.433 127.558C308.55 127.441 308.709 127.375 308.875 127.375H315.125C315.291 127.375 315.45 127.441 315.567 127.558C315.684 127.675 315.75 127.834 315.75 128ZM320.125 128C320.125 129.607 319.648 131.178 318.756 132.514C317.863 133.85 316.594 134.892 315.109 135.507C313.625 136.121 311.991 136.282 310.415 135.969C308.839 135.655 307.391 134.882 306.255 133.745C305.118 132.609 304.345 131.161 304.031 129.585C303.718 128.009 303.879 126.375 304.493 124.891C305.108 123.406 306.15 122.137 307.486 121.244C308.822 120.352 310.393 119.875 312 119.875C314.154 119.877 316.219 120.734 317.743 122.257C319.266 123.781 320.123 125.846 320.125 128ZM318.875 128C318.875 126.64 318.472 125.311 317.716 124.18C316.961 123.05 315.887 122.169 314.631 121.648C313.375 121.128 311.992 120.992 310.659 121.257C309.325 121.522 308.1 122.177 307.139 123.139C306.177 124.1 305.522 125.325 305.257 126.659C304.992 127.992 305.128 129.375 305.648 130.631C306.169 131.887 307.05 132.961 308.18 133.716C309.311 134.472 310.64 134.875 312 134.875C313.823 134.873 315.57 134.148 316.859 132.859C318.148 131.57 318.873 129.823 318.875 128Z" fill="#980019"/>
<path d="M338.442 124.5V123.252H340.938V132H339.558V124.5H338.442Z" fill="#343330"/>
<path d="M368 119.875C366.393 119.875 364.822 120.352 363.486 121.244C362.15 122.137 361.108 123.406 360.493 124.891C359.879 126.375 359.718 128.009 360.031 129.585C360.345 131.161 361.118 132.609 362.255 133.745C363.391 134.882 364.839 135.655 366.415 135.969C367.991 136.282 369.625 136.121 371.109 135.507C372.594 134.892 373.863 133.85 374.756 132.514C375.648 131.178 376.125 129.607 376.125 128C376.123 125.846 375.266 123.781 373.743 122.257C372.219 120.734 370.154 119.877 368 119.875ZM368 134.875C366.64 134.875 365.311 134.472 364.18 133.716C363.05 132.961 362.169 131.887 361.648 130.631C361.128 129.375 360.992 127.992 361.257 126.659C361.522 125.325 362.177 124.1 363.139 123.139C364.1 122.177 365.325 121.522 366.659 121.257C367.992 120.992 369.375 121.128 370.631 121.648C371.887 122.169 372.961 123.05 373.716 124.18C374.472 125.311 374.875 126.64 374.875 128C374.873 129.823 374.148 131.57 372.859 132.859C371.57 134.148 369.823 134.873 368 134.875ZM371.75 128C371.75 128.166 371.684 128.325 371.567 128.442C371.45 128.559 371.291 128.625 371.125 128.625H368.625V131.125C368.625 131.291 368.559 131.45 368.442 131.567C368.325 131.684 368.166 131.75 368 131.75C367.834 131.75 367.675 131.684 367.558 131.567C367.441 131.45 367.375 131.291 367.375 131.125V128.625H364.875C364.709 128.625 364.55 128.559 364.433 128.442C364.316 128.325 364.25 128.166 364.25 128C364.25 127.834 364.316 127.675 364.433 127.558C364.55 127.441 364.709 127.375 364.875 127.375H367.375V124.875C367.375 124.709 367.441 124.55 367.558 124.433C367.675 124.316 367.834 124.25 368 124.25C368.166 124.25 368.325 124.316 368.442 124.433C368.559 124.55 368.625 124.709 368.625 124.875V127.375H371.125C371.291 127.375 371.45 127.441 371.567 127.558C371.684 127.675 371.75 127.834 371.75 128Z" fill="#980019"/>
<line x1="1" y1="109.6" x2="397" y2="109.6" stroke="#DDDEE2" stroke-width="0.8"/>
</svg>
